# xmcd CD database file
#
# Track frame offsets:
#	150
#	13819
#	36270
#	56401
#	74425
#	90638
#	106685
#	121999
#	133279
#	149185
#	166741
#	183921
#	199813
#	221065
#
# Disc length: 3197 seconds
#
# Revision: 0
# Processed by: cddbd v1.4PL0 Copyright (c) Steve Scherf et al.
# Submitted via: CDex 1.50
#
DISCID=d20c7b0e
DTITLE=Ludvig Girdland Tobias Neumann - Dialogue
DYEAR=2003
DGENRE=Jazz
TTITLE0=Smash
TTITLE1=Nobody Knows
TTITLE2=Where Should I go
TTITLE3=Liebertango
TTITLE4=Oblivion
TTITLE5=Samba Irregulare
TTITLE6=Will you  be my valentine
TTITLE7=Silly and Crazy
TTITLE8=Näckens Polska
TTITLE9=Irish Buffet
TTITLE10=Odenplan
TTITLE11=Armando's Rhumba
TTITLE12=Endless Days
TTITLE13=Blues For Zlatan
EXTD=YEAR: 2003
EXTT0=
EXTT1=
EXTT2=
EXTT3=
EXTT4=
EXTT5=
EXTT6=
EXTT7=
EXTT8=
EXTT9=
EXTT10=
EXTT11=
EXTT12=
EXTT13=
PLAYORDER=
